<?xml version="1.0" encoding="utf-8"?>
<!-- Generator: Adobe Illustrator 24.0.0, SVG Export Plug-In . SVG Version: 6.00 Build 0)  -->
<svg version="1.1" id="Layer_1" xmlns="http://www.w3.org/2000/svg" xmlns:xlink="http://www.w3.org/1999/xlink" x="0px" y="0px"
	 viewBox="0 0 64 64" fill="#819593" style="enable-background:new 0 0 64 64;" xml:space="preserve">
<g>
	<path d="M20.48,8.12c2.23-1.65,4.47-3.29,6.71-4.93c0.75-0.55,1.09-0.55,1.84,0.01c7.87,5.79,15.74,11.58,23.61,17.37
		c0.91,0.67,1,1.2,0.34,2.11c-0.7,0.97-1.42,1.93-2.13,2.9c-0.84,1.15-1.12,1.21-2.38,0.48c0,2.44,0,4.86,0,7.33
		c0.57,0.1,1.16,0.19,1.75,0.31c5.81,1.24,10.19,6.06,10.89,11.96c0.02,0.13,0.07,0.25,0.1,0.38c0,0.84,0,1.67,0,2.51
		c-0.03,0.13-0.09,0.25-0.1,0.38c-0.68,5.74-4.85,10.49-10.46,11.87c-0.69,0.17-1.4,0.28-2.11,0.42c-0.84,0-1.67,0-2.51,0
		c-1.01-0.23-2.06-0.38-3.04-0.7c-5.87-1.92-9.69-7.29-9.62-13.46c0-0.28,0-0.56,0-0.9c-0.25,0-0.47,0-0.69,0
		c-7.72,0-15.44,0-23.16,0c-1.46,0-1.74-0.28-1.74-1.72c0-5.88,0-11.75,0-17.63c0-0.22,0-0.45,0-0.69c-0.09,0-0.16-0.02-0.2,0
		c-1.06,0.63-1.42,0.56-2.14-0.41c-0.78-1.06-1.56-2.11-2.32-3.18c-0.52-0.71-0.43-1.3,0.26-1.82c2.72-2.01,5.45-4.02,8.18-6.02
		L20.48,8.12z M12.91,16.52c-0.09,0.07-0.18,0.14-0.27,0.2c-2.2,1.62-4.41,3.25-6.61,4.87c-0.15,0.11-0.3,0.23-0.49,0.38
		c0.44,0.6,0.86,1.18,1.32,1.81c0.19-0.13,0.38-0.25,0.56-0.38c6.54-4.81,13.08-9.62,19.61-14.43c0.93-0.69,1.22-0.69,2.17,0.01
		c6.69,4.92,13.38,9.85,20.13,14.82c0.44-0.6,0.87-1.19,1.33-1.81c-0.17-0.14-0.31-0.26-0.46-0.37C42.99,16.3,35.78,11,28.57,5.68
		c-0.35-0.26-0.57-0.28-0.93-0.01L12.91,16.52z M35.87,39.3c0.31-0.38,0.49-0.63,0.7-0.85c0.42-0.42,1.06-0.45,1.5-0.1
		c0.46,0.36,0.57,0.96,0.26,1.48c-0.11,0.18-0.25,0.34-0.37,0.51c-1.38,1.87-2.17,3.97-2.29,6.28c-0.41,7.6,6.3,13.47,13.79,12.1
		c5.17-0.94,9.13-5.44,9.45-10.72c0.32-5.27-3.03-10.18-8.03-11.78c-1.75-0.56-3.53-0.69-5.35-0.45c-0.79,0.1-1.32-0.32-1.39-1
		c-0.07-0.63,0.38-1.14,1.13-1.26c0.28-0.05,0.56-0.07,0.83-0.1c0.02-0.1,0.05-0.15,0.05-0.2c0-2.87,0.01-5.74-0.01-8.61
		c0-0.21-0.21-0.47-0.4-0.6c-4.08-3.02-8.17-6.02-12.25-9.03c-1.79-1.32-3.58-2.63-5.37-3.95c-0.11,0.07-0.19,0.12-0.26,0.18
		c-5.82,4.28-11.63,8.56-17.46,12.83c-0.32,0.23-0.34,0.5-0.34,0.83c0,6.12,0,12.25,0,18.37c0,0.2,0.02,0.4,0.03,0.62
		c3.44,0,6.83,0,10.27,0c0-0.26,0-0.48,0-0.71c0-4.98,0-9.96,0-14.95c0-1.67,0.9-2.57,2.57-2.57c3.44,0,6.88,0,10.32,0
		c1.73,0,2.62,0.9,2.62,2.65c0,3.42,0,6.85,0,10.27C35.87,38.73,35.87,38.93,35.87,39.3z M22.66,43.84c3.66,0,7.26,0,10.88,0
		c0-5.32,0-10.62,0-15.92c-3.65,0-7.25,0-10.88,0C22.66,33.24,22.66,38.52,22.66,43.84z"/>
	<path d="M45.76,45.55c1.27-1.28,2.45-2.52,3.68-3.7c1.39-1.34,3.44-1.35,4.78-0.07c1.33,1.28,1.47,3.39,0.19,4.73
		c-2.08,2.16-4.21,4.29-6.37,6.37c-1.27,1.23-3.26,1.2-4.56-0.02c-1.12-1.05-2.22-2.14-3.27-3.27c-1.27-1.36-1.2-3.44,0.11-4.74
		c1.31-1.29,3.36-1.32,4.74-0.06C45.29,45.01,45.48,45.25,45.76,45.55z M41.45,47.19c0.2,0.39,0.3,0.71,0.5,0.93
		c0.97,1.01,1.97,2.01,2.97,2.99c0.54,0.53,1.15,0.5,1.72-0.02c0.33-0.31,0.65-0.64,0.97-0.96c1.64-1.64,3.28-3.27,4.91-4.92
		c0.63-0.64,0.62-1.41-0.01-1.87c-0.49-0.36-1.06-0.28-1.58,0.24c-1.4,1.39-2.79,2.79-4.19,4.19c-0.67,0.67-1.25,0.67-1.92,0.01
		c-0.45-0.44-0.88-0.89-1.34-1.31c-0.35-0.32-0.81-0.44-1.21-0.17C41.96,46.5,41.74,46.86,41.45,47.19z"/>
	<path d="M30.17,35.88c0-0.62,0.48-1.12,1.1-1.13c0.63-0.01,1.17,0.52,1.17,1.14c0,0.62-0.55,1.15-1.17,1.14
		C30.65,37.01,30.17,36.51,30.17,35.88z"/>
</g>
</svg>
