<?xml version="1.0" encoding="utf-8"?>
<!-- Generator: Adobe Illustrator 24.0.0, SVG Export Plug-In . SVG Version: 6.00 Build 0)  -->
<svg version="1.1" id="Layer_1" xmlns="http://www.w3.org/2000/svg" xmlns:xlink="http://www.w3.org/1999/xlink" x="0px" y="0px"
	 viewBox="0 0 64 64" fill="#3eb8cd" style="enable-background:new 0 0 64 64;" xml:space="preserve">
<g>
	<path d="M61.91,59.21c-0.36,0.65-0.93,0.83-1.65,0.83c-18.83-0.01-37.65-0.01-56.48-0.01c-1.34,0-1.67-0.35-1.68-1.71
		c-0.02-1.83-0.04-3.67,0.7-5.4c1.63-3.84,4.53-6.07,8.62-6.79c0.18-0.03,0.37-0.06,0.56-0.14c-1.94-0.37-3.53-1.29-4.68-2.89
		c-1.16-1.61-1.54-3.4-1.23-5.36c0.55-3.37,3.71-5.88,7.26-5.73c3.46,0.15,6.36,2.97,6.63,6.45c0.28,3.66-2.17,6.73-6.02,7.55
		c2.61,0.35,4.93,1.33,6.9,3.22c2.58-3.24,5.91-5.08,10.02-5.52c-6.34-1.03-8.85-6.86-8.06-11.04c0.86-4.49,4.87-7.79,9.46-7.67
		c4.7,0.13,8.53,3.68,9.05,8.46c0.47,4.39-2.5,9.32-8.15,10.23c1.95,0.25,3.82,0.76,5.55,1.71c1.73,0.96,3.19,2.21,4.34,3.69
		c1.14-0.7,2.19-1.48,3.35-2.01c1.15-0.52,2.41-0.79,3.51-1.13c-4.35-0.83-6.21-4.64-5.82-7.7c0.47-3.68,3.45-6.29,7.04-6.25
		c3.57,0.04,6.54,2.75,6.89,6.36c0.32,3.25-1.74,6.84-6.12,7.64c0.65,0.13,1.19,0.21,1.7,0.35c4.53,1.29,7.35,4.17,8.21,8.87
		c0.02,0.09,0.07,0.18,0.1,0.26C61.91,56.72,61.91,57.96,61.91,59.21z M43.71,57.66c-0.25-4.62-2.22-8.18-6.29-10.28
		c-4.35-2.25-8.64-1.84-12.56,1.11c-3,2.26-4.43,5.4-4.54,9.17C28.14,57.66,35.88,57.66,43.71,57.66z M32.02,27.32
		C28.16,27.31,25,30.46,25,34.32c0,3.84,3.13,6.99,6.96,7.01c3.86,0.02,7.04-3.12,7.05-6.98C39.03,30.5,35.88,27.33,32.02,27.32z
		 M17.99,57.67c0.05-2.17,0.48-4.18,1.42-6.08c0.17-0.34,0-0.49-0.2-0.69c-3.95-4.06-11.01-3.11-13.76,1.84
		c-0.86,1.54-1.14,3.19-0.97,4.93C8.99,57.67,13.46,57.67,17.99,57.67z M59.65,57.66c-0.09-0.97-0.07-1.92-0.29-2.81
		c-0.8-3.22-2.88-5.3-6.05-6.17c-3.24-0.89-6.1-0.04-8.55,2.25c-0.24,0.22-0.28,0.41-0.14,0.7c0.23,0.47,0.47,0.95,0.59,1.45
		c0.36,1.5,0.66,3.01,1,4.58C50.55,57.66,55.02,57.66,59.65,57.66z M17.63,39.01c0.01-2.53-2.08-4.64-4.63-4.68
		c-2.54-0.04-4.7,2.1-4.71,4.66c-0.01,2.53,2.08,4.64,4.63,4.68C15.46,43.7,17.62,41.57,17.63,39.01z M51.03,43.67
		c2.53,0.01,4.64-2.08,4.68-4.63c0.04-2.54-2.1-4.7-4.66-4.71c-2.53-0.01-4.64,2.08-4.68,4.63C46.34,41.5,48.48,43.66,51.03,43.67z"
		/>
	<path d="M38.18,20.61c0.02,1.01-0.9,1.54-1.82,1.08c-1.32-0.67-2.62-1.36-3.92-2.07c-0.35-0.19-0.62-0.18-0.96,0
		c-1.25,0.68-2.51,1.32-3.76,1.99c-0.49,0.26-0.99,0.39-1.48,0.04c-0.5-0.35-0.53-0.86-0.43-1.41c0.25-1.44,0.47-2.88,0.74-4.31
		c0.06-0.34-0.02-0.54-0.25-0.76c-1.05-1.01-2.09-2.04-3.14-3.05c-0.41-0.4-0.65-0.84-0.46-1.4c0.2-0.57,0.67-0.75,1.23-0.82
		c1.41-0.19,2.81-0.4,4.22-0.6c0.36-0.05,0.58-0.19,0.74-0.54c0.61-1.32,1.28-2.62,1.91-3.93c0.25-0.51,0.59-0.88,1.19-0.87
		c0.58,0.01,0.9,0.38,1.14,0.87c0.63,1.31,1.29,2.61,1.91,3.93c0.16,0.34,0.38,0.49,0.74,0.54c1.41,0.19,2.81,0.41,4.22,0.6
		c0.56,0.07,1.03,0.24,1.23,0.82c0.21,0.6-0.07,1.04-0.49,1.45c-1,0.96-1.96,1.95-2.98,2.88c-0.37,0.34-0.43,0.67-0.34,1.13
		c0.27,1.41,0.5,2.83,0.75,4.25C38.17,20.5,38.17,20.58,38.18,20.61z M31.96,7.79c-0.49,1.01-0.94,1.93-1.39,2.85
		c-0.23,0.47-0.57,0.75-1.11,0.82c-1.01,0.13-2.02,0.3-3.01,0.45c0.6,0.64,1.14,1.31,1.78,1.86c0.73,0.62,0.92,1.31,0.69,2.22
		c-0.2,0.81-0.29,1.65-0.44,2.57c0.62-0.32,1.14-0.59,1.65-0.86c2.06-1.08,1.61-1.08,3.65-0.01c0.52,0.27,1.04,0.54,1.68,0.87
		c-0.17-1.02-0.29-1.9-0.48-2.77c-0.17-0.76-0.01-1.34,0.58-1.88c0.68-0.63,1.27-1.34,1.89-2.01c-0.92-0.14-1.9-0.3-2.88-0.42
		c-0.63-0.08-1.02-0.4-1.28-0.96C32.88,9.63,32.43,8.75,31.96,7.79z"/>
	<path d="M7.33,26.43c0.14-0.79,0.3-1.75,0.48-2.71c0.08-0.41,0.03-0.72-0.31-1.03c-0.67-0.59-1.29-1.25-1.93-1.86
		c-0.41-0.39-0.58-0.84-0.39-1.37c0.18-0.52,0.61-0.72,1.13-0.79c0.89-0.12,1.77-0.26,2.66-0.37c0.37-0.05,0.62-0.19,0.79-0.56
		c0.37-0.83,0.8-1.64,1.2-2.46c0.23-0.48,0.57-0.79,1.12-0.8c0.55-0.01,0.9,0.31,1.13,0.78c0.4,0.82,0.83,1.63,1.2,2.46
		c0.17,0.39,0.43,0.54,0.83,0.59c0.87,0.1,1.73,0.25,2.6,0.36c0.54,0.07,0.98,0.28,1.16,0.83c0.19,0.55-0.04,0.98-0.43,1.36
		c-0.66,0.63-1.3,1.28-1.97,1.91c-0.25,0.23-0.35,0.45-0.27,0.81c0.19,0.91,0.33,1.84,0.49,2.76c0.09,0.52,0,0.98-0.44,1.3
		c-0.44,0.33-0.9,0.28-1.37,0.04c-0.81-0.43-1.63-0.83-2.42-1.29c-0.37-0.22-0.65-0.19-1.01,0.01c-0.83,0.47-1.67,0.92-2.53,1.33
		C8.13,28.14,7.28,27.56,7.33,26.43z M13.97,24.57c0.03-0.11,1.26-3.89,1.29-3.98c-1.71,0.2-2.73-0.62-3.2-2.31
		c-0.45,1.72-1.52,2.47-3.3,2.4c1.51,0.96,1.87,2.23,1.28,3.88C11.42,23.45,12.71,23.45,13.97,24.57z"/>
	<path d="M47.04,26.44c0.14-0.79,0.29-1.75,0.48-2.71c0.09-0.44,0.02-0.76-0.34-1.07c-0.63-0.55-1.2-1.17-1.81-1.74
		c-0.43-0.4-0.69-0.85-0.5-1.45c0.19-0.58,0.68-0.75,1.23-0.82c0.87-0.11,1.73-0.25,2.6-0.36c0.36-0.05,0.58-0.19,0.74-0.54
		c0.38-0.85,0.82-1.67,1.23-2.51c0.22-0.46,0.56-0.75,1.08-0.77c0.55-0.01,0.91,0.29,1.14,0.77c0.41,0.84,0.84,1.67,1.22,2.52
		c0.16,0.35,0.38,0.49,0.74,0.54c0.87,0.11,1.73,0.26,2.6,0.36c0.59,0.07,1.07,0.27,1.25,0.87c0.18,0.58-0.11,1.01-0.51,1.39
		c-0.66,0.63-1.33,1.26-1.96,1.92C56.09,23,56,23.29,56.03,23.49c0.13,0.92,0.29,1.84,0.47,2.76c0.1,0.54,0.04,1.02-0.41,1.37
		c-0.48,0.37-0.98,0.27-1.47,0c-0.8-0.43-1.62-0.84-2.42-1.28c-0.29-0.16-0.51-0.17-0.8-0.01c-0.87,0.48-1.74,0.95-2.63,1.38
		C47.86,28.14,47.01,27.58,47.04,26.44z M49.67,24.5c0.81-0.32,1.47-0.77,2.14-0.77c0.65,0,1.3,0.47,1.92,0.72
		c-0.04-0.71-0.27-1.48-0.06-2.11c0.21-0.62,0.86-1.09,1.28-1.6c-0.68-0.18-1.5-0.19-2.03-0.58c-0.53-0.39-0.77-1.15-1.17-1.79
		c-0.18,0.35-0.37,0.69-0.51,1.04c-0.27,0.69-0.75,1.05-1.49,1.1c-0.39,0.03-0.77,0.11-1.16,0.17c-0.05,0.04-0.09,0.09-0.14,0.13
		C50.03,21.65,50.34,22.91,49.67,24.5z"/>
	<path d="M36.64,49.71c0.13,0.05,0.4,0.12,0.61,0.27c1.34,0.92,2.38,2.1,3.11,3.55c0.35,0.68,0.18,1.35-0.41,1.67
		c-0.57,0.32-1.23,0.15-1.59-0.5c-0.63-1.17-1.48-2.12-2.54-2.9c-0.45-0.33-0.6-0.81-0.4-1.35C35.6,49.96,35.97,49.71,36.64,49.71z"
		/>
	<path d="M33.16,49.49c0.01,0.61-0.52,1.17-1.14,1.18c-0.61,0.01-1.17-0.52-1.18-1.14c-0.01-0.61,0.52-1.17,1.14-1.18
		C32.6,48.34,33.15,48.88,33.16,49.49z"/>
</g>
</svg>
