<?xml version="1.0" encoding="utf-8"?>
<!-- Generator: Adobe Illustrator 24.0.0, SVG Export Plug-In . SVG Version: 6.00 Build 0)  -->
<svg version="1.1" id="Layer_1" xmlns="http://www.w3.org/2000/svg" xmlns:xlink="http://www.w3.org/1999/xlink" x="0px" y="0px"
	 viewBox="0 0 64 64" fill="#3eb8cd" style="enable-background:new 0 0 64 64;" xml:space="preserve">
<rect x="-1.27" y="59.63" width="66.54" height="2.25"/>
<g>
	<path d="M2.39,60.35c0.3-0.55,0.78-0.71,1.39-0.71c2.58,0.02,5.17,0.01,7.75,0.01c0.21,0,0.42,0,0.72,0c0-0.3,0-0.56,0-0.82
		c0-18.27,0-36.54,0-54.82c0-0.27,0.01-0.54,0.05-0.8c0.07-0.48,0.4-0.73,0.86-0.8c0.19-0.03,0.38-0.02,0.58-0.02
		c8.23,0,16.46,0,24.69,0c1.18,0,1.46,0.28,1.46,1.47c0,7.15,0,14.3,0,21.45c0,0.23,0,0.46,0,0.78c0.26,0,0.48,0,0.71,0
		c4.2,0,8.4,0,12.61,0c1.24,0,1.5,0.25,1.5,1.48c0,10.43,0,20.85,0,31.28c0,0.24,0,0.49,0,0.79c1.1,0,2.14,0,3.17,0
		c0.81,0,1.62,0.01,2.43,0c0.56-0.01,1.05,0.1,1.25,0.7c0.21,0.62-0.18,0.97-0.63,1.28c-19.51,0-39.02,0-58.53,0
		C2.39,61.2,2.39,60.77,2.39,60.35z M27.06,59.63c0-0.3,0-0.55,0-0.8c0-10.37,0-20.74,0-31.11c0-1.4,0.23-1.63,1.6-1.63
		c2.87,0,5.74,0,8.62,0c0.2,0,0.41,0,0.6,0c0-7.29,0-14.49,0-21.69c-7.89,0-15.74,0-23.61,0c0,18.42,0,36.81,0,55.21
		c0.99,0,1.94,0,2.93,0c0-0.24,0-0.45,0-0.66c0-2.66-0.01-5.32,0-7.98c0.01-1.9,1.18-3.1,3.08-3.16c0.52-0.02,1.04-0.01,1.56,0
		c2.08,0.02,3.24,1.2,3.24,3.29c0.01,2.64,0,5.28,0,7.92c0,0.2,0,0.4,0,0.62C25.78,59.63,26.37,59.63,27.06,59.63z M29.07,59.61
		c7.9,0,15.76,0,23.6,0c0-10.53,0-21.03,0-31.51c-7.89,0-15.73,0-23.6,0C29.07,38.61,29.07,49.08,29.07,59.61z M23.05,59.62
		c0.03-0.08,0.05-0.11,0.05-0.15c0-2.89,0.01-5.78,0-8.66c0-0.64-0.37-0.99-1.01-1.02c-0.52-0.03-1.04-0.01-1.56-0.01
		c-1.05,0.01-1.36,0.32-1.36,1.39c0,2.62,0,5.24,0,7.86c0,0.19,0,0.37,0,0.59C20.49,59.62,21.76,59.62,23.05,59.62z"/>
	<path d="M31.06,16.21c0.87,0,1.73-0.01,2.6,0c0.95,0.01,1.3,0.35,1.31,1.28c0.01,1.79,0.01,3.58,0,5.37
		c-0.01,0.89-0.38,1.25-1.28,1.25c-1.79,0.01-3.58,0.01-5.37,0c-0.86-0.01-1.24-0.37-1.25-1.23c-0.01-1.81-0.01-3.62,0-5.43
		c0.01-0.87,0.36-1.23,1.23-1.25C29.21,16.2,30.14,16.21,31.06,16.21z M29.08,18.23c0,1.31,0,2.58,0,3.87c1.32,0,2.59,0,3.88,0
		c0-1.31,0-2.57,0-3.87C31.66,18.23,30.38,18.23,29.08,18.23z"/>
	<path d="M25.09,20.2c0,0.9,0.01,1.81,0,2.71c-0.01,0.81-0.35,1.19-1.14,1.2c-1.87,0.02-3.73,0.02-5.6,0
		c-0.76-0.01-1.13-0.4-1.14-1.16c-0.01-1.87-0.01-3.73,0-5.6c0-0.74,0.35-1.12,1.09-1.13c1.91-0.02,3.81-0.02,5.72,0
		c0.74,0.01,1.06,0.39,1.07,1.15C25.09,18.31,25.09,19.26,25.09,20.2z M23.08,22.12c0-1.33,0-2.59,0-3.89c-1.31,0-2.58,0-3.87,0
		c0,1.31,0,2.59,0,3.89C20.51,22.12,21.77,22.12,23.08,22.12z"/>
	<path d="M31,14.23c-0.92,0-1.85,0.01-2.77,0c-0.78-0.01-1.15-0.36-1.16-1.13c-0.02-1.87-0.02-3.73,0-5.6
		c0.01-0.79,0.4-1.16,1.2-1.16c1.83-0.01,3.66-0.01,5.49,0c0.83,0,1.21,0.37,1.22,1.2c0.02,1.83,0.02,3.66,0,5.49
		c-0.01,0.87-0.37,1.2-1.25,1.21C32.81,14.24,31.9,14.23,31,14.23z M32.96,12.23c0-1.31,0-2.59,0-3.89c-1.31,0-2.58,0-3.88,0
		c0,1.31,0,2.59,0,3.89C30.37,12.23,31.62,12.23,32.96,12.23z"/>
	<path d="M21.17,33.98c-0.94,0-1.89,0.01-2.83,0c-0.76-0.01-1.14-0.38-1.14-1.14c-0.01-1.87-0.01-3.73,0-5.6
		c0-0.76,0.38-1.13,1.14-1.13c1.87-0.01,3.73-0.01,5.6,0c0.77,0,1.13,0.36,1.13,1.14c0.01,1.87,0.01,3.73,0,5.6
		c0,0.77-0.37,1.13-1.14,1.14C23.02,33.99,22.1,33.98,21.17,33.98z M23.08,28.11c-1.32,0-2.6,0-3.87,0c0,1.32,0,2.6,0,3.87
		c1.31,0,2.58,0,3.87,0C23.08,30.68,23.08,29.42,23.08,28.11z"/>
	<path d="M17.2,10.26c0-0.9-0.01-1.81,0-2.71c0.01-0.83,0.37-1.2,1.2-1.21c1.83-0.01,3.66-0.01,5.49,0c0.83,0,1.19,0.37,1.19,1.21
		c0.01,1.83,0.01,3.66,0,5.49c0,0.85-0.34,1.19-1.19,1.2c-1.83,0.01-3.66,0.01-5.49,0c-0.87-0.01-1.2-0.37-1.2-1.25
		C17.19,12.07,17.2,11.17,17.2,10.26z M23.08,12.23c0-1.33,0-2.6,0-3.89c-1.31,0-2.58,0-3.87,0c0,1.32,0,2.59,0,3.89
		C20.51,12.23,21.77,12.23,23.08,12.23z"/>
	<path d="M25.08,39.89c0,0.92,0.01,1.85,0,2.77c-0.01,0.82-0.34,1.17-1.15,1.18c-1.87,0.01-3.73,0.01-5.6,0
		c-0.77-0.01-1.13-0.38-1.13-1.15c-0.01-1.87-0.01-3.73,0-5.6c0-0.73,0.38-1.13,1.1-1.13c1.91-0.02,3.81-0.02,5.72,0
		c0.7,0.01,1.05,0.4,1.06,1.1C25.1,38,25.08,38.94,25.08,39.89z M23.08,37.97c-1.34,0-2.61,0-3.89,0c0,1.31,0,2.58,0,3.86
		c1.31,0,2.58,0,3.89,0C23.08,40.53,23.08,39.27,23.08,37.97z"/>
	<path d="M45.77,47.8c-0.89,0-1.77,0.01-2.66,0c-0.87-0.01-1.23-0.37-1.24-1.23c-0.01-1.81-0.01-3.62,0-5.43
		c0.01-0.86,0.38-1.24,1.24-1.24c1.81-0.01,3.62-0.01,5.43,0c0.86,0.01,1.23,0.37,1.24,1.24c0.01,1.81,0.01,3.62,0,5.43
		c-0.01,0.87-0.36,1.22-1.23,1.24C47.62,47.82,46.69,47.8,45.77,47.8z M43.85,41.91c0,1.23-0.01,2.42,0.02,3.61
		c0,0.11,0.26,0.29,0.41,0.3c0.79,0.03,1.57,0.01,2.36,0.01c0.37,0,0.75,0,1.13,0c0-1.37,0-2.63,0-3.92
		C46.47,41.91,45.21,41.91,43.85,41.91z"/>
	<path d="M39.89,43.84c0,0.92,0.01,1.85,0,2.77c-0.01,0.82-0.34,1.18-1.15,1.19c-1.87,0.02-3.73,0.02-5.6,0
		c-0.77-0.01-1.13-0.39-1.13-1.15c-0.01-1.87-0.01-3.73,0-5.6c0-0.75,0.38-1.13,1.15-1.14c1.87-0.02,3.73-0.02,5.6,0
		c0.76,0.01,1.11,0.39,1.12,1.16C39.9,41.99,39.89,42.91,39.89,43.84z M34.04,41.9c0,1.33,0,2.62,0,3.89c1.31,0,2.56,0,3.84,0
		c0-1.31,0-2.58,0-3.89C36.59,41.9,35.33,41.9,34.04,41.9z"/>
	<path d="M45.8,37.92c-0.92,0-1.85,0.01-2.77,0c-0.77-0.01-1.15-0.36-1.15-1.13c-0.02-1.87-0.02-3.73,0-5.6
		c0.01-0.79,0.4-1.14,1.2-1.15c1.83-0.01,3.66-0.01,5.49,0c0.83,0,1.21,0.36,1.21,1.19c0.02,1.83,0.02,3.66,0,5.49
		c-0.01,0.86-0.37,1.19-1.26,1.2C47.61,37.93,46.7,37.92,45.8,37.92z M47.76,35.92c0-1.31,0-2.59,0-3.87c-1.32,0-2.6,0-3.87,0
		c0,1.32,0,2.59,0,3.87C45.21,35.92,46.47,35.92,47.76,35.92z"/>
	<path d="M45.83,57.68c-0.9,0-1.81,0.01-2.71,0c-0.86-0.01-1.23-0.37-1.24-1.24c-0.01-1.81-0.01-3.62,0-5.43
		c0.01-0.87,0.36-1.22,1.24-1.23c1.81-0.01,3.62-0.01,5.43,0c0.88,0,1.23,0.35,1.24,1.22c0.01,1.81,0.01,3.62,0,5.43
		c-0.01,0.89-0.38,1.24-1.29,1.24C47.6,57.68,46.71,57.68,45.83,57.68z M47.77,51.79c-1.34,0-2.6,0-3.89,0c0,1.31,0,2.59,0,3.87
		c1.32,0,2.59,0,3.89,0C47.77,54.36,47.77,53.09,47.77,51.79z"/>
	<path d="M35.95,37.92c-0.92,0-1.85,0.01-2.77,0c-0.8-0.01-1.17-0.36-1.17-1.17c-0.01-1.85-0.01-3.7,0-5.54
		c0-0.8,0.38-1.16,1.18-1.17c1.85-0.01,3.7-0.01,5.54,0c0.8,0,1.16,0.36,1.16,1.17c0.01,1.85,0.01,3.7,0,5.54
		c0,0.81-0.36,1.15-1.17,1.16C37.8,37.93,36.87,37.92,35.95,37.92z M37.88,35.92c0-1.32,0-2.6,0-3.87c-1.32,0-2.6,0-3.87,0
		c0,1.31,0,2.57,0,3.87C35.3,35.92,36.56,35.92,37.88,35.92z"/>
	<path d="M39.89,53.71c0,0.92,0.01,1.85,0,2.77c-0.01,0.83-0.37,1.19-1.21,1.19c-1.81,0.01-3.62,0.01-5.43,0
		c-0.87,0-1.24-0.37-1.24-1.22c-0.01-1.83-0.01-3.66,0-5.49c0-0.81,0.35-1.17,1.16-1.18c1.87-0.01,3.73-0.01,5.6,0
		c0.78,0.01,1.11,0.36,1.12,1.15C39.9,51.86,39.89,52.79,39.89,53.71z M37.87,55.68c0-1.34,0-2.62,0-3.89c-1.31,0-2.57,0-3.86,0
		c0,1.31,0,2.59,0,3.89C35.31,55.68,36.57,55.68,37.87,55.68z"/>
</g>
</svg>
